<?xml version="1.0" encoding="utf-8"?>
<!-- Generator: Adobe Illustrator 27.5.0, SVG Export Plug-In . SVG Version: 6.00 Build 0)  -->
<svg version="1.1" xmlns="http://www.w3.org/2000/svg" xmlns:xlink="http://www.w3.org/1999/xlink" x="0px" y="0px"
	 viewBox="0 0 3710 3710" style="enable-background:new 0 0 3710 3710;" xml:space="preserve">
<g id="Background">
	<g>
		<g>
			<rect style="fill:#FFFFFF;" width="3710" height="3710"/>
		</g>
	</g>
</g>
<g id="Illustration">
	<g>
		<linearGradient id="SVGID_1_" gradientUnits="userSpaceOnUse" x1="3593.0479" y1="4028.9563" x2="1122.0881" y2="960.1793">
			<stop  offset="0" style="stop-color:#DAE3FE"/>
			<stop  offset="1" style="stop-color:#E9EFFD"/>
		</linearGradient>
		<path style="fill:url(#SVGID_1_);" d="M2913.271,2818.742c-56.757,59.751-110.46,98.284-152.89,128.728
			c-498.752,357.86-1088.908,253.546-1214.333,228.071c-185.213-37.618-543.226-110.332-802.063-414.719
			c-391.598-460.512-330.621-1186.035-26.871-1664.963c55.561-87.604,349.048-573.827,945.561-651.802
			c361.003-47.19,781.816,47.986,1086.557,303.299C3388.914,1283.28,3343.375,2365.942,2913.271,2818.742z"/>
		<g>
			<g>
				<path style="fill:#91B3FA;" d="M2500.572,2075.045c0,0-8.446-355.076,155.099-450.11
					c163.544-95.034,474.5-154.45,486.155-664.305c6.824-298.492,14.21-428.998,19.16-485.904
					c1.931-22.198-17.795-40.116-39.692-35.992c-154.89,29.179-658.061,149.281-763.555,492.717
					C2232.677,1338.599,2500.572,2075.045,2500.572,2075.045z"/>
				<path style="opacity:0.34;fill:#FFFFFF;" d="M3001.508,580.591c-170.023,151.636-366.623,420.002-471.413,688.368
					c-13.451,44.228-52.797,138.285-69.883,305.398c-15.261,139.375-7.674,286.653,10.83,384.144
					c1.17,6.163,7.115,10.211,13.278,9.041c10.598-2.01,9.188-13.409,9.093-13.05c-21.133-166.565-12.361-373.882,36.063-560.943
					c61.866-229.689,199.853-452.381,342.575-641.255l14.687-18.598c110.576-142.005,133.854-143.052,123.517-152.95
					C3007.814,578.407,3003.992,578.386,3001.508,580.591z"/>
			</g>
			<g>
				<path style="fill:#BDD0FB;" d="M2237.75,2757.727c-22.127,10.85,209.476-280.392,282.026-737.809
					c34.187-215.547,34.634-485.608,157.418-589.681c102.19-86.616,449.929-31.932,563.709-11.151
					c14.218,2.596,19.004,20.556,7.937,29.852c-54.564,45.824-171.286,153.912-201.699,262.845
					c-40.086,143.582-176.593,234.907-298.8,259.623c-122.208,24.716-190.189,48.701-249.725,244.138
					C2439.081,2410.98,2300.622,2726.898,2237.75,2757.727z"/>
				<path style="opacity:0.56;fill:#FFFFFF;" d="M3080.878,1479.752c-145.166,6.08-300.99,72.3-380.066,196.515l-7.464,11.853
					c-17.238,27.793-114.933,225.366-169.193,389.144c-0.675,2.042,0.431,4.246,2.472,4.922c3.468,1.148,5.205-2.668,4.874-2.331
					c37.804-92.523,92.099-209.826,135.343-297.547c46.375-95.721,78.828-160.546,184.606-222.639
					c117.734-66.871,230.212-73.755,229.875-73.686c1.717-0.175,2.967-1.709,2.791-3.426
					C3083.948,1480.906,3082.514,1479.687,3080.878,1479.752z"/>
			</g>
			<g>
				<path style="fill:#91B3FA;" d="M2337.035,2796.04c-13.131,6.923,73.962-142.982,80.645-275.051
					c6.683-132.069,36.478-357.481,150.368-492.321c113.891-134.84,238.611-147.142,395.766-24.56
					c130.962,102.151,212.653,153.703,260.561,163.286c11.863,2.373,17.917,15.765,12.144,26.396
					c-30.728,56.587-117.603,186.568-263.47,177.416c-186.063-11.672-411.558-132.627-480.286-31.725
					c-68.728,100.901-59.903,157.359-62.014,205.178C2428.638,2592.479,2423.931,2750.225,2337.035,2796.04z"/>
				<path style="opacity:0.34;fill:#FFFFFF;" d="M3000.433,2166.014c-67.724-54.646-178.021-108.345-274.417-98.333
					c-125.418,17.004-208.964,87.495-254.538,192.427c-17.815,44.555-25.144,68.339-35.677,122.954
					c-0.842,4.361,6.802,5.664,8.074,1.406c7.664-25.653,15.256-52.513,26.612-80.294c66.106-179.233,207.22-203.374,212.71-207.042
					c10.668,0.886,75.344-39.864,228.807,29.639c28.657,13.128,56.552,28.115,82.741,44.644l0.145,0.092
					c1.895,1.196,4.583,0.873,6.004-0.722C3002.211,2169.308,3001.979,2167.259,3000.433,2166.014z"/>
			</g>
		</g>
		<g>
			<g>
				
					<linearGradient id="SVGID_00000168090475768564024140000004879522245465346975_" gradientUnits="userSpaceOnUse" x1="3436.6038" y1="1826.1666" x2="2022.3536" y2="1785.7589">
					<stop  offset="0" style="stop-color:#09005D"/>
					<stop  offset="1" style="stop-color:#1A0F91"/>
				</linearGradient>
				<path style="fill:url(#SVGID_00000168090475768564024140000004879522245465346975_);" d="M1015.788,594.824
					c-8.853,417.781-37.565,1858.861-23.859,2369.536c1.452,54.1,38.525,97.523,84.77,99.294
					c228.724,8.756,1067.216,30.95,1441.331,12.588c77.923-3.825,139.889-77.663,141.506-168.882
					c7.775-438.514,24.926-1671.885-15.841-2236.894c-4.886-67.695-50.305-121.605-108.089-128.369
					c-249.092-29.151-1091.189-100.409-1414.403-75.871C1062.912,470.652,1017.235,526.509,1015.788,594.824z"/>
				
					<linearGradient id="SVGID_00000138549018934890161430000013209409753344952991_" gradientUnits="userSpaceOnUse" x1="2016.8828" y1="2613.5105" x2="1707.094" y2="1104.9783">
					<stop  offset="0" style="stop-color:#FF928E"/>
					<stop  offset="1" style="stop-color:#FE7062"/>
				</linearGradient>
				<path style="fill:url(#SVGID_00000138549018934890161430000013209409753344952991_);" d="M1117.844,723.002
					c-12.311,337.211-51.145,1459.031-38.82,1873.856c1.802,60.633,42.651,109.659,94.422,113.204
					c213.161,14.592,940.41,46.768,1253.063,17.48c56.298-5.274,100.476-58.538,103.514-124.514
					c15.844-344.025,61.335-1388.596,49.522-1798.774c-1.886-65.434-45.213-118.873-100.955-124.727
					c-230.605-24.223-1003.391-81.855-1269.073-64.897C1159.644,617.813,1119.975,664.623,1117.844,723.002z"/>
				
					<linearGradient id="SVGID_00000030473551771877570220000005360367735596513955_" gradientUnits="userSpaceOnUse" x1="1581.0569" y1="547.5449" x2="1896.5344" y2="547.5449">
					<stop  offset="0" style="stop-color:#4F52FF"/>
					<stop  offset="1" style="stop-color:#4042E2"/>
				</linearGradient>
				<path style="opacity:0.54;fill:url(#SVGID_00000030473551771877570220000005360367735596513955_);" d="M1581.057,539.228
					L1581.057,539.228c0,12.819,8.539,23.392,19.482,24.062c54.023,3.31,206.208,12.674,274.222,17.291
					c13.41,0.911,23.936-13.191,21.392-28.621l-0.434-2.633c-1.736-10.528-9.2-18.453-18.327-19.431
					c-45.974-4.929-184.697-18.594-276.61-14.756C1589.742,515.601,1581.057,526.303,1581.057,539.228z"/>
			</g>
			<circle style="fill:#FFFFFF;" cx="1778.486" cy="1251.647" r="437.437"/>
			<g>
				
					<linearGradient id="SVGID_00000142171187552860649690000015800390430788490685_" gradientUnits="userSpaceOnUse" x1="2069.4641" y1="379.2136" x2="1961.712" y2="709.2051">
					<stop  offset="0" style="stop-color:#FF928E"/>
					<stop  offset="1" style="stop-color:#FE7062"/>
				</linearGradient>
				<path style="fill:url(#SVGID_00000142171187552860649690000015800390430788490685_);" d="M1904.285,1279.364l-22.658-94.28
					c-6.465-27.803-31.51-47.567-60.063-47.814l-79.453-0.688l-80.077-0.694c-29.104-0.252-54.132,19.346-60.778,47.437
					l-21.093,95.455c-29.555,6.515-50.562,29.838-50.562,57.548v102.968c0,9.843,9.235,19.605,20.498,19.519l26.621-0.183v47.606
					c0,14.892,10.646,26.9,25.587,26.73l18.315-0.208c14.891-0.17,26.777-12.412,26.777-27.251v-47.436l191.843-1.493v46.973
					c0,14.694,9.863,26.576,24.411,26.41l16.626-0.202c14.5-0.165,26.276-12.259,26.276-26.901v-46.807l25.296-0.182
					c10.82-0.083,21.823-9.758,21.823-19.39v-100.766C1953.677,1308.646,1932.235,1285.882,1904.285,1279.364z M1645.001,1194.651
					c1.83-7.752,8.828-12.806,17.012-12.755l80.055,0.508l79.408,0.504c8.047,0.051,14.916,5.145,16.712,12.853l19.225,81.985
					l-232.06-0.35L1645.001,1194.651z M1613.543,1405.47c-21.769,0.108-39.451-17.41-39.451-39.129
					c0-21.719,17.682-39.343,39.451-39.364c21.721-0.022,39.294,17.497,39.294,39.13
					C1652.837,1387.738,1635.263,1405.362,1613.543,1405.47z M1868.936,1404.203c-21.21,0.105-38.438-17.188-38.438-38.626
					c0-21.438,17.228-38.834,38.438-38.855c21.164-0.021,38.288,17.272,38.288,38.626
					C1907.224,1386.702,1890.1,1404.097,1868.936,1404.203z"/>
				<g>
					
						<linearGradient id="SVGID_00000102532870341091690330000002223010932147793310_" gradientUnits="userSpaceOnUse" x1="2283.041" y1="448.9532" x2="2175.2891" y2="778.9445">
						<stop  offset="0" style="stop-color:#FF928E"/>
						<stop  offset="1" style="stop-color:#FE7062"/>
					</linearGradient>
					<path style="fill:url(#SVGID_00000102532870341091690330000002223010932147793310_);" d="M2155.824,1187.099
						c-8.607-50.707-17.221-101.014-25.844-151.812c-0.965-5.687-5.79-9.448-11.421-9.53c-43.25-0.631-86.697-1.265-130.336-1.901
						c-5.711-0.083-10.595,3.581-11.577,9.285c-8.767,50.996-17.54,101.813-26.324,152.901c-0.74,4.303,0.451,9.36,3.228,12.721
						c2.776,3.36,6.862,5.94,11.168,5.963c59.358,0.313,118.352,0.624,176.99,0.933c4.231,0.022,8.244-2.595,10.966-5.893
						C2155.396,1196.469,2156.548,1191.369,2155.824,1187.099z"/>
					<g>
						
							<linearGradient id="SVGID_00000023995694175348489670000003136255456216561054_" gradientUnits="userSpaceOnUse" x1="2248.3384" y1="437.6215" x2="2140.5864" y2="767.6129">
							<stop  offset="0" style="stop-color:#FF928E"/>
							<stop  offset="1" style="stop-color:#FE7062"/>
						</linearGradient>
						<path style="fill:url(#SVGID_00000023995694175348489670000003136255456216561054_);" d="M2053.619,1089.699
							c-26.723-0.3-48.517-25.446-48.517-56.053c0-30.607,21.794-55.138,48.517-54.685c26.649,0.452,48.275,25.595,48.275,56.049
							C2101.894,1065.465,2080.268,1089.998,2053.619,1089.699z M2053.619,992.118c-19.589-0.319-35.556,18.392-35.556,41.711
							c0,23.318,15.966,42.48,35.556,42.713c19.55,0.233,35.425-18.479,35.425-41.713
							C2089.044,1011.596,2073.168,992.437,2053.619,992.118z"/>
					</g>
				</g>
			</g>
			<path style="opacity:0.57;fill:#FFFFFF;" d="M2363.354,1978.523H1328.534c-6.075,0-11-4.925-11-11v-126.089
				c0-6.075,4.925-11,11-11h1034.819c6.075,0,11,4.925,11,11v126.089C2374.354,1973.598,2369.429,1978.523,2363.354,1978.523z"/>
			<path style="opacity:0.57;fill:#FFFFFF;" d="M2444.625,2274.702H1240.523c-5.799,0-10.5-4.701-10.5-10.5v-133.82
				c0-5.799,4.701-10.5,10.5-10.5h1204.102c5.799,0,10.5,4.701,10.5,10.5v133.82C2455.125,2270,2450.424,2274.702,2444.625,2274.702
				z"/>
		</g>
		<g>
			<g>
				<g>
					
						<linearGradient id="SVGID_00000114062064820289147010000016107082855851692732_" gradientUnits="userSpaceOnUse" x1="2407.5989" y1="1660.5687" x2="2569.2283" y2="1003.9518">
						<stop  offset="0" style="stop-color:#2B3582"/>
						<stop  offset="1" style="stop-color:#150E42"/>
					</linearGradient>
					<path style="fill:url(#SVGID_00000114062064820289147010000016107082855851692732_);" d="M2089.895,2193.259
						c-4.531,0-8.27-3.599-8.412-8.156c-0.095-3.117-2.111-77.256,20.092-156.427c29.885-106.565,89.781-169.718,173.217-182.631
						c41.338-6.396,78.082,3.39,109.252,29.077c100.005,82.419,109.548,300.165,109.906,309.393
						c0.181,4.645-3.439,8.556-8.086,8.737c-4.571,0.118-8.556-3.439-8.737-8.084c-0.085-2.187-9.615-219.462-103.806-297.065
						c-27.306-22.495-59.591-31.05-95.951-25.419c-185.985,28.785-179.149,318.969-179.057,321.896
						c0.145,4.648-3.505,8.531-8.155,8.676C2090.069,2193.257,2089.98,2193.259,2089.895,2193.259z"/>
					
						<linearGradient id="SVGID_00000091017616156975246150000005480319808546964625_" gradientUnits="userSpaceOnUse" x1="2536.8984" y1="2228.6672" x2="3446.0554" y2="901.9697">
						<stop  offset="0" style="stop-color:#4F52FF"/>
						<stop  offset="1" style="stop-color:#4042E2"/>
					</linearGradient>
					<path style="fill:url(#SVGID_00000091017616156975246150000005480319808546964625_);" d="M1871.009,2124.898
						c0.741-5.025,5.012-8.774,10.09-8.858l554.402-9.164l181.53,1082.196h-875.982
						C1710.959,3189.073,1871.009,2124.898,1871.009,2124.898z"/>
					
						<linearGradient id="SVGID_00000147219827524147232310000002157772351265807255_" gradientUnits="userSpaceOnUse" x1="3745.4536" y1="1383.5708" x2="3381.7893" y2="1780.9081">
						<stop  offset="0" style="stop-color:#4F52FF"/>
						<stop  offset="1" style="stop-color:#4042E2"/>
					</linearGradient>
					<path style="fill:url(#SVGID_00000147219827524147232310000002157772351265807255_);" d="M2532.452,2115.128l-96.952-8.251
						l181.53,1082.196h108.591c22.017,0,38.471-20.234,33.982-41.788L2547.427,2128.4
						C2545.918,2121.153,2539.829,2115.756,2532.452,2115.128z"/>
					
						<linearGradient id="SVGID_00000002358851229090852970000001343823946103121308_" gradientUnits="userSpaceOnUse" x1="2292.9517" y1="1632.3488" x2="2454.5811" y2="975.7321">
						<stop  offset="0" style="stop-color:#2B3582"/>
						<stop  offset="1" style="stop-color:#150E42"/>
					</linearGradient>
					<path style="fill:url(#SVGID_00000002358851229090852970000001343823946103121308_);" d="M1968.874,2190.932
						c-4.531,0-8.27-3.599-8.412-8.157c-0.095-3.117-2.111-77.256,20.092-156.428c29.884-106.564,89.781-169.716,173.217-182.63
						c41.334-6.399,78.082,3.387,109.252,29.077c100.008,82.419,109.548,300.165,109.906,309.393
						c0.181,4.645-3.44,8.556-8.086,8.737c-4.498,0.14-8.556-3.44-8.737-8.084c-0.085-2.187-9.612-219.462-103.806-297.066
						c-27.3-22.495-59.588-31.053-95.951-25.419c-185.985,28.783-179.149,318.969-179.057,321.896
						c0.145,4.648-3.505,8.532-8.155,8.677C1969.048,2190.931,1968.959,2190.932,1968.874,2190.932z"/>
				</g>
				
					<linearGradient id="SVGID_00000041262756400326682120000015241289065120434332_" gradientUnits="userSpaceOnUse" x1="1985.8782" y1="2688.4907" x2="2328.7449" y2="2688.4907">
					<stop  offset="0" style="stop-color:#DAE3FE"/>
					<stop  offset="1" style="stop-color:#E9EFFD"/>
				</linearGradient>
				<path style="fill:url(#SVGID_00000041262756400326682120000015241289065120434332_);" d="M2146.313,2873.848
					c-13.889,0.909-26.812-5.553-34.001-17.097l-120.746-193.892c-11.316-18.17-5.219-43.057,13.612-55.583
					c18.815-12.519,43.234-7.946,54.535,10.217l83.739,134.592l110.492-225.032c9.916-20.196,33.74-29.46,53.198-20.7
					c19.455,8.756,27.196,32.212,17.294,52.395l-142.787,291.042c-6.539,13.326-19.537,22.497-33.941,23.944
					C2147.242,2873.778,2146.778,2873.818,2146.313,2873.848z"/>
			</g>
			<g>
				
					<linearGradient id="SVGID_00000054976849738391887430000006744499088178971295_" gradientUnits="userSpaceOnUse" x1="2544.926" y1="2436.3955" x2="2916.24" y2="2436.3955">
					<stop  offset="0" style="stop-color:#FF928E"/>
					<stop  offset="1" style="stop-color:#FE7062"/>
				</linearGradient>
				<path style="fill:url(#SVGID_00000054976849738391887430000006744499088178971295_);" d="M2909.507,2591.213
					c-0.079-2.033-8.917-204.139-97.227-276.909c-26.166-21.56-57.077-29.762-91.874-24.376
					c-73.237,11.334-123.888,65.21-150.546,160.132c-20.029,71.318-18.164,140.231-18.143,140.918l-6.735,0.208
					c-0.021-0.697-1.926-70.505,18.35-142.803c11.954-42.626,29.168-77.814,51.164-104.589
					c27.664-33.673,62.951-54.037,104.879-60.526c36.777-5.691,69.483,3.001,97.195,25.841
					c38.136,31.429,66.504,88.469,84.315,169.538c13.208,60.116,15.334,111.79,15.354,112.305L2909.507,2591.213z"/>
				
					<linearGradient id="SVGID_00000152942713723152659920000010898978244256121782_" gradientUnits="userSpaceOnUse" x1="3359.2773" y1="800.3767" x2="3251.5251" y2="1130.3683">
					<stop  offset="0" style="stop-color:#FF928E"/>
					<stop  offset="1" style="stop-color:#FE7062"/>
				</linearGradient>
				<path style="fill:url(#SVGID_00000152942713723152659920000010898978244256121782_);" d="M2268.443,3152.702l89.513-590.047
					c0.855-5.635,5.653-9.83,11.352-9.924l517.227-8.549l111.881,666.12h-685.943
					C2283.378,3210.303,2264.197,3181.487,2268.443,3152.702z"/>
				
					<linearGradient id="SVGID_00000061468170178189017340000013585311268836290182_" gradientUnits="userSpaceOnUse" x1="3003.6045" y1="2873.5752" x2="3384.1062" y2="2324.71">
					<stop  offset="0" style="stop-color:#FF928E"/>
					<stop  offset="1" style="stop-color:#FE7062"/>
				</linearGradient>
				<path style="fill:url(#SVGID_00000061468170178189017340000013585311268836290182_);" d="M2986.258,2552.669l-99.722-8.487
					l111.881,666.12l110.449-2.852c10.903-0.282,18.885-10.374,16.647-21.049l-131.53-627.386
					C2992.972,2555.504,2989.899,2552.979,2986.258,2552.669z"/>
				
					<linearGradient id="SVGID_00000182528001876082847820000009705649374746066343_" gradientUnits="userSpaceOnUse" x1="2433.4246" y1="2434.2517" x2="2804.7385" y2="2434.2517">
					<stop  offset="0" style="stop-color:#FF928E"/>
					<stop  offset="1" style="stop-color:#FE7062"/>
				</linearGradient>
				<path style="fill:url(#SVGID_00000182528001876082847820000009705649374746066343_);" d="M2798.005,2589.069
					c-0.079-2.033-8.916-204.139-97.227-276.909c-26.163-21.56-57.076-29.761-91.874-24.376
					c-73.237,11.334-123.888,65.21-150.546,160.132c-20.029,71.319-18.164,140.231-18.143,140.919l-6.735,0.208
					c-0.021-0.697-1.926-70.505,18.35-142.803c11.954-42.626,29.168-77.814,51.164-104.589
					c27.664-33.674,62.951-54.037,104.879-60.526c36.779-5.691,69.483,3.002,97.196,25.84
					c38.135,31.429,66.503,88.469,84.314,169.538c13.208,60.116,15.334,111.79,15.354,112.305L2798.005,2589.069z"/>
				<path style="opacity:0.7;fill:#FFFFFF;" d="M2636.725,3072.782c-11.727,0.767-22.637-4.688-28.707-14.435l-101.945-163.701
					c-9.554-15.34-4.406-36.353,11.492-46.928c15.885-10.57,36.502-6.709,46.043,8.625l70.7,113.634l93.287-189.992
					c8.372-17.051,28.487-24.873,44.915-17.477c16.426,7.393,22.961,27.197,14.601,44.236l-120.553,245.723
					c-5.521,11.251-16.495,18.993-28.656,20.216C2637.509,3072.723,2637.117,3072.756,2636.725,3072.782z"/>
			</g>
		</g>
		<g>
			<g>
				<g style="opacity:0.3;">
					<path style="fill:#91B3FA;" d="M699.934,919.687c-4.028,1.523-8.639-0.214-10.614-4.146
						c-4.323-8.598-8.335-17.513-11.927-26.494c-1.748-4.37,0.377-9.328,4.745-11.076c0.053-0.02,0.104-0.039,0.156-0.059
						c4.33-1.637,9.193,0.489,10.919,4.806c3.412,8.533,7.224,17,11.329,25.169c2.114,4.203,0.419,9.326-3.786,11.439
						C700.487,919.464,700.211,919.582,699.934,919.687z M674.206,850.067c-0.311,0.118-0.634,0.219-0.966,0.301
						c-4.566,1.135-9.189-1.646-10.325-6.212c-2.33-9.38-4.283-18.952-5.803-28.449c-0.744-4.646,2.405-8.999,7.066-9.761
						c4.647-0.742,9.015,2.424,9.758,7.067c1.445,9.028,3.3,18.121,5.517,27.035C680.506,844.281,678.189,848.561,674.206,850.067z
						 M664.448,776.514c-0.887,0.335-1.846,0.527-2.849,0.547c-4.704,0.088-8.592-3.651-8.682-8.356
						c-0.186-9.643,0.046-19.414,0.69-29.043c0.317-4.695,4.379-8.241,9.07-7.932c4.694,0.315,8.246,4.376,7.932,9.07
						c-0.612,9.144-0.832,18.42-0.656,27.579C670.024,772.079,667.723,775.276,664.448,776.514z M671.383,702.609
						c-1.466,0.554-3.103,0.71-4.75,0.365c-4.605-0.963-7.557-5.479-6.594-10.084c1.98-9.447,4.39-18.921,7.164-28.16
						c1.357-4.501,6.104-7.057,10.611-5.708c4.505,1.353,7.061,6.105,5.708,10.611c-2.636,8.774-4.927,17.773-6.804,26.75
						C676.098,699.34,674.015,701.615,671.383,702.609z M694.624,632.109c-2.056,0.777-4.41,0.763-6.564-0.226
						c-4.278-1.962-6.154-7.02-4.191-11.295c4.015-8.75,8.461-17.454,13.217-25.862c2.313-4.098,7.511-5.543,11.609-3.224
						c4.095,2.316,5.538,7.513,3.223,11.611c-4.522,7.992-8.747,16.264-12.563,24.579
						C698.381,629.813,696.647,631.344,694.624,632.109z M732.879,568.51c-2.663,1.007-5.769,0.658-8.197-1.2
						c-3.737-2.861-4.448-8.206-1.59-11.944c5.86-7.658,12.122-15.162,18.613-22.298c3.168-3.482,8.555-3.735,12.036-0.568
						c3.48,3.164,3.735,8.553,0.569,12.034c-6.167,6.782-12.117,13.908-17.685,21.185
						C735.623,567.031,734.315,567.967,732.879,568.51z M1017.733,439.157c-1.104,0.417-2.309,0.61-3.563,0.528
						c-9.134-0.596-18.417-0.801-27.59-0.608c-4.703,0.099-8.598-3.634-8.696-8.336c-0.101-4.704,3.632-8.599,8.337-8.698
						c9.661-0.204,19.438,0.01,29.057,0.637c4.696,0.306,8.254,4.362,7.947,9.057
						C1023.002,435.18,1020.762,438.012,1017.733,439.157z M784.244,515.005c-3.306,1.25-7.179,0.344-9.564-2.526
						c-3.008-3.62-2.512-8.991,1.106-11.998c7.416-6.165,15.191-12.082,23.11-17.587c3.875-2.667,9.172-1.734,11.859,2.131
						c2.685,3.863,1.731,9.172-2.133,11.86c-7.52,5.226-14.903,10.845-21.946,16.699
						C785.927,514.205,785.104,514.68,784.244,515.005z M943.601,442.707c-0.526,0.199-1.079,0.351-1.655,0.444
						c-9.041,1.464-18.139,3.341-27.041,5.571c-4.565,1.142-9.192-1.631-10.336-6.194c-1.141-4.564,1.62-9.211,6.194-10.335
						c9.367-2.345,18.94-4.32,28.453-5.863c4.645-0.753,9.022,2.403,9.774,7.047C949.651,437.443,947.312,441.304,943.601,442.707z
						 M846.273,474.315c-4.022,1.52-8.626-0.208-10.607-4.131c-2.121-4.201-0.436-9.324,3.763-11.448
						c8.599-4.343,17.502-8.373,26.462-11.973c0.055-0.024,0.112-0.046,0.168-0.067c4.324-1.634,9.18,0.483,10.913,4.791
						c1.756,4.367-0.359,9.329-4.726,11.083c-8.51,3.423-16.965,7.252-25.136,11.379
						C846.835,474.085,846.555,474.208,846.273,474.315z"/>
					<path style="fill:#91B3FA;" d="M1076.834,448.435c-1.569,0.593-3.329,0.732-5.081,0.291c-4.26-1.072-8.613-2.07-12.94-2.975
						c-4.605-0.96-7.562-5.474-6.6-10.078c0.959-4.607,5.473-7.569,10.081-6.599c4.551,0.948,9.129,2,13.612,3.126
						c4.562,1.147,7.334,5.777,6.186,10.338C1081.386,445.352,1079.355,447.482,1076.834,448.435z"/>
				</g>
				<g style="opacity:0.3;">
					<path style="fill:#91B3FA;" d="M1284.012,605.101c-3.846,1.454-8.286-0.056-10.396-3.737
						c-2.182-3.811-4.482-7.641-6.835-11.381c-2.505-3.984-1.308-9.244,2.675-11.748c4-2.515,9.244-1.306,11.749,2.675
						c2.476,3.938,4.899,7.971,7.198,11.983c2.339,4.083,0.925,9.288-3.158,11.628
						C1284.844,604.751,1284.431,604.943,1284.012,605.101z"/>
					<path style="fill:#91B3FA;" d="M1113.854,1080.531c-3.667,1.386-7.372,2.715-11.112,3.987
						c-4.455,1.513-9.295-0.87-10.809-5.324c-1.515-4.455,0.884-9.318,5.323-10.81c8.633-2.936,17.128-6.214,25.342-9.788
						c4.321-1.872,9.333,0.097,11.211,4.411c1.879,4.317-0.098,9.337-4.412,11.214
						C1124.315,1076.431,1119.086,1078.553,1113.854,1080.531z M1059.266,1096.052c-0.445,0.168-0.912,0.302-1.396,0.396
						c-9.331,1.816-18.843,3.255-28.27,4.278c-4.677,0.508-8.881-2.873-9.389-7.548c-0.507-4.679,2.878-8.897,7.551-9.39
						c8.954-0.972,17.989-2.342,26.857-4.064c4.618-0.899,9.09,2.118,9.988,6.734
						C1065.411,1090.594,1063.078,1094.611,1059.266,1096.052z M1169.167,1053.522c-3.757,1.42-8.111,0.017-10.277-3.537
						c-2.45-4.02-1.177-9.261,2.84-11.711c7.686-4.684,15.275-9.762,22.558-15.097c3.801-2.774,9.128-1.956,11.908,1.839
						c2.78,3.798,1.956,9.129-1.84,11.909c-7.669,5.617-15.663,10.965-23.756,15.899
						C1170.135,1053.106,1169.655,1053.338,1169.167,1053.522z M986.454,1102.016c-1.012,0.383-2.113,0.574-3.26,0.542
						c-9.493-0.279-19.089-0.968-28.519-2.046c-4.674-0.535-8.029-4.757-7.494-9.431c0.534-4.677,4.753-8.033,9.432-7.496
						c8.954,1.023,18.065,1.678,27.081,1.942c4.703,0.136,8.404,4.063,8.265,8.766
						C991.855,1097.848,989.587,1100.832,986.454,1102.016z M1226.901,1008.859c-3.082,1.165-6.698,0.475-9.137-2.043
						c-3.274-3.38-3.187-8.775,0.194-12.048c6.464-6.257,12.749-12.881,18.686-19.685c3.093-3.546,8.475-3.915,12.021-0.819
						c3.544,3.093,3.911,8.473,0.818,12.018c-6.249,7.165-12.867,14.138-19.672,20.728
						C1228.95,1007.843,1227.957,1008.46,1226.901,1008.859z M1273.439,952.607c-2.464,0.931-5.324,0.71-7.694-0.845
						c-3.933-2.583-5.028-7.866-2.444-11.799c4.953-7.543,9.646-15.383,13.949-23.299c2.241-4.138,7.412-5.669,11.552-3.42
						c4.135,2.247,5.664,7.419,3.419,11.555c-4.528,8.332-9.466,16.581-14.68,24.518
						C1276.516,950.879,1275.064,951.993,1273.439,952.607z M1306.606,887.548c-1.874,0.708-4.002,0.762-6.024-0.003
						c-4.4-1.663-6.618-6.582-4.953-10.982c3.196-8.448,6.072-17.12,8.543-25.782c1.292-4.523,6.001-7.146,10.532-5.852
						c4.524,1.293,7.144,6.006,5.852,10.532c-2.603,9.113-5.628,18.244-8.99,27.132
						C1310.665,884.971,1308.813,886.714,1306.606,887.548z M1324.793,816.809c-1.298,0.491-2.734,0.67-4.205,0.462
						c-4.658-0.662-7.896-4.974-7.234-9.632c1.272-8.937,2.175-18.027,2.685-27.022c0.267-4.697,4.297-8.291,8.986-8.025
						c4.699,0.266,8.291,4.291,8.024,8.988c-0.537,9.474-1.488,19.048-2.826,28.456
						C1329.769,813.224,1327.606,815.745,1324.793,816.809z M1327.009,743.774c-0.73,0.276-1.511,0.454-2.328,0.52
						c-4.689,0.381-8.801-3.113-9.18-7.801c-0.729-8.975-1.85-18.036-3.337-26.937c-0.774-4.642,2.375-9.031,7.001-9.805
						c4.641-0.776,9.032,2.36,9.807,7.002c1.564,9.37,2.745,18.911,3.511,28.359C1332.798,738.985,1330.47,742.466,1327.009,743.774
						z M1313.135,672.086c-0.164,0.062-0.331,0.118-0.499,0.171c-4.494,1.392-9.267-1.122-10.658-5.616
						c-1.966-6.344-4.15-12.701-6.494-18.903c-0.848-2.245-1.722-4.476-2.614-6.69c-1.759-4.366,0.353-9.33,4.718-11.087
						c4.384-1.867,9.327,0.353,11.085,4.715c0.94,2.331,1.856,4.674,2.749,7.037c2.465,6.522,4.763,13.213,6.83,19.885
						C1319.593,665.923,1317.314,670.506,1313.135,672.086z"/>
					<path style="fill:#91B3FA;" d="M913.92,1091.745c-1.585,0.599-3.361,0.733-5.123,0.282c-4.468-1.147-8.995-2.41-13.458-3.754
						c-4.506-1.357-7.059-6.109-5.702-10.614c1.358-4.505,6.105-7.061,10.614-5.702c4.239,1.276,8.54,2.475,12.782,3.565
						c4.556,1.167,7.303,5.81,6.134,10.368C918.449,1088.686,916.426,1090.798,913.92,1091.745z"/>
				</g>
				<g>
					<path style="fill:#91B3FA;" d="M889.735,995.245c1.47,0.851,3.318,0.677,4.602-0.436l36.634-31.729
						c21.656,6.578,44.516,9.75,67.797,9.044l27.046,40.177c0.949,1.41,2.687,2.061,4.328,1.624l56.172-14.968
						c1.642-0.438,2.824-1.869,2.947-3.562l3.466-48.308c20.545-10.973,38.796-25.1,54.306-41.582l47.565,9.292
						c1.667,0.326,3.357-0.442,4.209-1.912l29.135-50.303c0.852-1.471,0.677-3.319-0.436-4.603l-31.728-36.633
						c6.578-21.655,9.75-44.517,9.044-67.797l40.178-27.047c1.409-0.948,2.061-2.686,1.624-4.328l-14.969-56.172
						c-0.437-1.641-1.868-2.825-3.563-2.946l-48.308-3.467c-10.972-20.545-25.099-38.796-41.581-54.306l9.292-47.566
						c0.325-1.666-0.443-3.357-1.912-4.208l-50.304-29.135c-1.47-0.852-3.318-0.677-4.603,0.435l-36.633,31.729
						c-21.655-6.579-44.516-9.751-67.797-9.044l-27.046-40.178c-0.949-1.409-2.686-2.061-4.328-1.624l-56.172,14.969
						c-1.642,0.437-2.825,1.868-2.946,3.563l-3.466,48.308c-20.546,10.972-38.796,25.099-54.306,41.582l-47.564-9.292
						c-1.667-0.327-3.358,0.442-4.209,1.912l-29.135,50.304c-0.851,1.47-0.676,3.318,0.435,4.603l31.728,36.633
						c-6.578,21.656-9.75,44.517-9.044,67.797l-40.178,27.046c-1.409,0.948-2.061,2.687-1.623,4.328l14.968,56.171
						c0.438,1.642,1.868,2.825,3.562,2.947l48.308,3.466c10.972,20.545,25.099,38.795,41.581,54.306l-9.291,47.565
						c-0.326,1.668,0.442,3.357,1.912,4.209L889.735,995.245z"/>
					<g>
						<path style="fill:#BDD0FB;" d="M1013.131,814.487c-26.644,10.071-57.435-0.651-71.687-26.267
							c-15.665-28.158-5.502-63.806,22.653-79.471c13.64-7.593,29.419-9.412,44.426-5.133c15.01,4.277,27.456,14.145,35.044,27.786
							c15.665,28.158,5.502,63.806-22.653,79.471C1018.376,812.284,1015.773,813.488,1013.131,814.487z M976.752,717.862
							c-2.058,0.778-4.07,1.709-6.028,2.798c-21.587,12.009-29.378,39.346-17.369,60.931c12.011,21.588,39.343,29.391,60.933,17.37
							c21.587-12.009,29.378-39.345,17.369-60.931c-5.819-10.459-15.36-18.024-26.87-21.305
							C995.434,714.06,985.688,714.484,976.752,717.862z"/>
					</g>
					<path style="fill:#BDD0FB;" d="M1044.089,893.009c-4.576,1.73-9.266,3.239-14.057,4.516l0,0
						c-1.508,0.403-3.023,0.78-4.544,1.134c-7.498,1.742-15.122,2.884-22.756,3.41c-0.104,0.007-0.208,0.015-0.312,0.022
						c-0.295,0.019-0.59,0.038-0.887,0.054c-0.575,0.036-1.151,0.065-1.726,0.094c-1.513,0.074-2.842-0.85-3.352-2.195
						c-0.123-0.327-0.198-0.679-0.216-1.046c-0.091-1.88,1.363-3.472,3.24-3.566c9.674-0.465,19.361-1.978,28.795-4.494
						c46.865-12.48,81.577-47.972,95.25-91.094c7.608-23.984,8.704-50.33,1.757-76.394c-1.217-4.571-2.656-9.047-4.307-13.411
						c-11.106-29.373-31.804-53.829-59.344-69.778c-31.634-18.323-68.511-23.23-103.834-13.816
						c-72.951,19.448-116.438,94.57-97.007,167.487c1.198,4.496,2.619,8.915,4.255,13.238c7.085,18.736,18.192,35.714,32.582,49.675
						c0.372,0.361,0.643,0.785,0.814,1.24c0.452,1.195,0.209,2.6-0.742,3.578c-1.315,1.348-3.467,1.389-4.82,0.072
						c-15.107-14.658-26.77-32.482-34.208-52.152c-1.717-4.538-3.208-9.176-4.467-13.894
						c-20.402-76.557,25.307-155.436,101.836-175.831c37.084-9.883,75.796-4.73,109.006,14.505
						c28.913,16.744,50.641,42.418,62.302,73.254c1.732,4.582,3.243,9.28,4.522,14.076c9.882,37.086,4.731,75.799-14.503,109.008
						C1100.617,859.621,1074.932,881.351,1044.089,893.009z"/>
				</g>
			</g>
			<g>
				<g style="opacity:0.3;">
					<path style="fill:#91B3FA;" d="M507.36,1232.495c-2.129,0.805-4.616,0.157-6.057-1.753c-2.693-3.564-5.315-7.259-7.79-10.982
						c-1.609-2.419-0.953-5.682,1.467-7.295c2.417-1.622,5.686-0.952,7.295,1.467c2.359,3.547,4.858,7.069,7.427,10.471
						c1.751,2.316,1.29,5.615-1.027,7.37C508.261,1232.083,507.819,1232.321,507.36,1232.495z"/>
					<path style="fill:#91B3FA;" d="M486.031,1198.092c-2.495,0.943-5.348-0.138-6.562-2.573c-3.436-6.881-6.557-14.019-9.275-21.21
						c-0.572-1.514-1.129-3.039-1.674-4.575c-0.968-2.743,0.65-5.701,3.203-6.721c2.74-0.97,5.746,0.465,6.717,3.202
						c0.52,1.468,1.051,2.927,1.598,4.373c2.593,6.859,5.57,13.667,8.844,20.229c1.299,2.602,0.243,5.759-2.355,7.06
						C486.361,1197.956,486.196,1198.03,486.031,1198.092z M467.799,1146.587c-0.233,0.088-0.477,0.164-0.724,0.219
						c-2.839,0.628-5.65-1.161-6.28-3.999c-2.023-9.102-3.498-18.411-4.383-27.663c-0.278-2.894,1.859-5.46,4.736-5.74
						c2.895-0.276,5.461,1.841,5.74,4.736c0.845,8.827,2.253,17.706,4.181,26.387
						C471.641,1143.114,470.207,1145.677,467.799,1146.587z M462.601,1092.2c-0.625,0.236-1.305,0.355-2.012,0.338
						c-2.904-0.083-5.19-2.51-5.106-5.415c0.273-9.305,1.129-18.698,2.552-27.91c0.443-2.876,3.123-4.839,6.005-4.396
						c2.87,0.442,4.84,3.132,4.397,6.001c-1.357,8.786-2.176,17.737-2.433,26.613C465.938,1089.626,464.536,1091.469,462.601,1092.2
						z M470.934,1038.197c-1.019,0.385-2.165,0.456-3.292,0.14c-2.795-0.795-4.42-3.707-3.625-6.502
						c2.55-8.973,5.678-17.863,9.301-26.429c1.134-2.675,4.226-3.921,6.896-2.793c2.677,1.13,3.928,4.217,2.797,6.897
						c-3.455,8.162-6.44,16.646-8.87,25.2C473.667,1036.379,472.441,1037.627,470.934,1038.197z M492.203,987.868
						c-1.423,0.538-3.069,0.457-4.491-0.362c-2.517-1.449-3.381-4.666-1.933-7.185c4.652-8.07,9.843-15.932,15.434-23.363
						c1.745-2.33,5.046-2.791,7.368-1.043c2.323,1.748,2.79,5.048,1.043,7.367c-5.334,7.093-10.287,14.59-14.723,22.293
						C494.269,986.67,493.302,987.453,492.203,987.868z M525.039,944.233c-1.843,0.697-4.007,0.322-5.52-1.139
						c-2.089-2.017-2.144-5.347-0.128-7.439c6.472-6.698,13.424-13.057,20.662-18.891c2.275-1.821,5.577-1.465,7.401,0.795
						c1.824,2.261,1.467,5.576-0.794,7.398c-6.903,5.565-13.529,11.623-19.699,18.01
						C526.403,943.547,525.743,943.966,525.039,944.233z M567.535,909.958c-2.307,0.872-4.983,0.021-6.328-2.151
						c-1.53-2.471-0.768-5.714,1.702-7.246c7.892-4.889,16.195-9.346,24.679-13.251c2.666-1.173,5.77-0.054,6.981,2.585
						c1.215,2.639,0.058,5.763-2.58,6.98c-8.095,3.719-16.014,7.971-23.539,12.633C568.154,909.692,567.848,909.84,567.535,909.958z
						 M643.72,880.449c-0.284,0.107-0.584,0.193-0.894,0.25c-7.54,1.416-15.134,3.27-22.574,5.511
						c-1.129,0.333-2.233,0.674-3.331,1.028c-2.771,0.882-5.73-0.641-6.615-3.41c-0.891-2.773,0.627-5.819,3.407-6.617
						c1.172-0.372,2.344-0.738,3.528-1.087c7.774-2.339,15.735-4.283,23.643-5.766c2.857-0.536,5.606,1.342,6.141,4.2
						C647.503,877.101,646.063,879.563,643.72,880.449z"/>
				</g>
				<g style="opacity:0.3;">
					<path style="fill:#91B3FA;" d="M765.953,1305.232c-2.687,1.016-5.701-0.317-6.756-3c-1.063-2.702,0.268-5.76,2.973-6.82
						c8.144-3.199,16.161-6.922,23.828-11.067c2.553-1.35,5.75-0.432,7.133,2.127c1.382,2.559,0.427,5.75-2.127,7.133
						c-8.044,4.342-16.447,8.249-24.983,11.602C765.999,1305.215,765.975,1305.224,765.953,1305.232z M740.351,1313.553
						c-0.178,0.067-0.357,0.124-0.545,0.173c-8.865,2.307-17.962,4.097-27.035,5.324c-2.881,0.386-5.529-1.629-5.918-4.509
						c-0.393-2.884,1.646-5.528,4.507-5.923c8.658-1.169,17.337-2.878,25.798-5.077c2.811-0.733,5.684,0.956,6.415,3.766
						C744.258,1309.938,742.831,1312.615,740.351,1313.553z M813.215,1279.677c-2.182,0.825-4.729,0.117-6.147-1.874
						c-1.682-2.364-1.13-5.649,1.238-7.335c7.131-5.079,14.012-10.63,20.453-16.51c2.159-1.953,5.476-1.806,7.433,0.344
						c1.958,2.144,1.806,5.475-0.34,7.435c-6.752,6.161-13.968,11.982-21.444,17.302
						C814.029,1279.309,813.628,1279.521,813.215,1279.677z M687.071,1320.715c-0.56,0.211-1.166,0.331-1.799,0.34
						c-9.166,0.108-18.432-0.351-27.536-1.365c-2.889-0.32-4.969-2.923-4.65-5.813c0.323-2.88,2.926-4.962,5.811-4.646
						c8.682,0.965,17.513,1.401,26.253,1.3c2.905-0.032,5.29,2.296,5.322,5.201C690.498,1318.003,689.08,1319.956,687.071,1320.715z
						 M852.894,1243.458c-1.742,0.659-3.783,0.37-5.292-0.928c-2.208-1.895-2.459-5.218-0.567-7.422
						c5.691-6.623,11.033-13.663,15.88-20.934c1.614-2.423,4.882-3.071,7.299-1.457c2.417,1.613,3.071,4.882,1.457,7.299
						c-5.086,7.619-10.686,15.004-16.65,21.95C854.427,1242.659,853.69,1243.157,852.894,1243.458z M882.728,1198.776
						c-1.334,0.504-2.865,0.467-4.235-0.224c-2.594-1.31-3.637-4.476-2.326-7.069c3.946-7.815,7.452-15.936,10.421-24.133
						c0.99-2.736,4.011-4.148,6.74-3.157c2.733,0.989,4.144,4.004,3.155,6.735c-3.112,8.598-6.786,17.111-10.92,25.3
						C884.945,1197.448,883.915,1198.327,882.728,1198.776z M901,1148.229c-0.937,0.354-1.984,0.448-3.035,0.203
						c-2.833-0.649-4.601-3.474-3.95-6.307c1.966-8.527,3.42-17.252,4.324-25.927c0.305-2.884,2.891-4.988,5.78-4.684
						c2.891,0.302,4.989,2.888,4.687,5.781c-0.952,9.095-2.475,18.246-4.532,27.192C903.862,1146.268,902.591,1147.627,901,1148.229
						z"/>
					<path style="fill:#91B3FA;" d="M633.403,1314.736c-0.95,0.359-2.012,0.447-3.074,0.195c-4.382-1.041-8.752-2.218-12.992-3.494
						c-2.781-0.839-4.36-3.774-3.523-6.557c0.844-2.775,3.774-4.354,6.558-3.522c4.042,1.219,8.213,2.34,12.393,3.336
						c2.828,0.672,4.574,3.512,3.901,6.337C636.245,1312.794,634.982,1314.14,633.403,1314.736z"/>
				</g>
				<g>
					<path style="fill:#91B3FA;" d="M613.461,1249.603c0.983,0.57,2.221,0.453,3.079-0.292l24.514-21.231
						c14.491,4.401,29.788,6.525,45.366,6.052l18.098,26.884c0.634,0.943,1.798,1.379,2.896,1.087l37.588-10.016
						c1.099-0.293,1.89-1.25,1.972-2.384l2.319-32.326c13.748-7.343,25.96-16.795,36.339-27.825l31.828,6.218
						c1.116,0.217,2.247-0.296,2.817-1.28l19.496-33.661c0.57-0.984,0.453-2.221-0.292-3.08l-21.231-24.513
						c4.402-14.491,6.525-29.788,6.052-45.367l26.885-18.098c0.943-0.635,1.379-1.798,1.087-2.896l-10.017-37.588
						c-0.293-1.099-1.25-1.891-2.384-1.971l-32.326-2.32c-7.342-13.748-16.795-25.96-27.825-36.339l6.217-31.829
						c0.218-1.115-0.296-2.246-1.279-2.816l-33.661-19.496c-0.983-0.57-2.22-0.452-3.079,0.292l-24.514,21.232
						c-14.49-4.403-29.788-6.525-45.366-6.052l-18.098-26.885c-0.635-0.943-1.797-1.38-2.896-1.087l-37.588,10.016
						c-1.098,0.293-1.89,1.25-1.971,2.384l-2.319,32.326c-13.748,7.342-25.961,16.795-36.34,27.825L547,988.351
						c-1.116-0.218-2.247,0.296-2.817,1.28l-19.496,33.661c-0.569,0.984-0.453,2.221,0.292,3.08l21.231,24.513
						c-4.402,14.491-6.524,29.788-6.051,45.367l-26.886,18.098c-0.942,0.634-1.379,1.798-1.086,2.896l10.016,37.587
						c0.293,1.099,1.25,1.89,2.384,1.972l32.326,2.32c7.342,13.748,16.795,25.96,27.824,36.339l-6.217,31.828
						c-0.218,1.116,0.296,2.246,1.28,2.817L613.461,1249.603z"/>
					<g>
						<path style="fill:#BDD0FB;" d="M696.226,1129.328c-7.94,3.001-16.598,3.379-24.91,1.01
							c-10.224-2.915-18.701-9.638-23.869-18.929c-10.669-19.172-3.749-43.454,15.429-54.13
							c19.223-10.65,43.467-3.745,54.135,15.432c5.171,9.291,6.412,20.039,3.497,30.261c-2.913,10.226-9.635,18.705-18.93,23.872
							C699.841,1127.808,698.051,1128.638,696.226,1129.328z M671.893,1064.665c-1.324,0.501-2.626,1.103-3.901,1.81
							c-14.105,7.853-19.196,25.714-11.347,39.821c3.801,6.831,10.037,11.78,17.556,13.921c7.524,2.144,15.424,1.224,22.264-2.57
							l0,0c6.833-3.802,11.78-10.04,13.923-17.557c2.144-7.524,1.23-15.429-2.573-22.265
							C700.676,1064.992,685.244,1059.619,671.893,1064.665z"/>
					</g>
					<path style="fill:#BDD0FB;" d="M717.704,1184.012c-3.115,1.177-6.314,2.205-9.596,3.083c-6.52,1.739-13.224,2.817-19.942,3.203
						c-0.302,0.015-0.604,0.03-0.906,0.045c-2.336,0.114-4.388-1.313-5.176-3.389c-0.191-0.505-0.306-1.049-0.333-1.615
						c-0.141-2.902,2.107-5.356,5.003-5.506c6.276-0.301,12.546-1.281,18.639-2.908l0.002-0.001c0.335-0.088,0.67-0.182,1.001-0.274
						c14.385-3.981,27.233-11.398,37.688-21.502c5.675-5.485,10.645-11.77,14.765-18.738c0.034-0.057,0.067-0.113,0.101-0.17
						c0.101-0.176,0.204-0.347,0.303-0.521c11.859-20.48,15.037-44.352,8.943-67.22c-0.786-2.96-1.719-5.855-2.787-8.681
						c-7.19-19.015-20.591-34.847-38.42-45.176c-20.48-11.86-44.351-15.033-67.216-8.939c-22.85,6.098-41.994,20.729-53.858,41.205
						c-11.86,20.479-15.037,44.353-8.943,67.22c0.773,2.91,1.695,5.77,2.752,8.568c4.588,12.132,11.777,23.121,21.092,32.158
						c0.574,0.558,0.994,1.212,1.257,1.914c0.698,1.846,0.323,4.015-1.144,5.525c-2.029,2.08-5.353,2.139-7.443,0.11
						c-10.422-10.113-18.468-22.41-23.602-35.977c-1.185-3.134-2.215-6.332-3.082-9.586c-6.818-25.588-3.264-52.295,10.008-75.209
						c13.271-22.909,34.649-39.296,60.251-46.099c25.584-6.82,52.291-3.268,75.203,10.007c19.948,11.55,34.939,29.264,42.982,50.538
						c1.194,3.158,2.238,6.4,3.12,9.708C791.563,1115.322,764.661,1166.263,717.704,1184.012z"/>
				</g>
			</g>
		</g>
		<g>
			
				<linearGradient id="SVGID_00000046306419504444606900000010163532787007209636_" gradientUnits="userSpaceOnUse" x1="-3535.8232" y1="1987.1945" x2="-3753.8684" y2="1987.1945" gradientTransform="matrix(-1 0 0 1 -2606.4314 0)">
				<stop  offset="0" style="stop-color:#FEBBBA"/>
				<stop  offset="1" style="stop-color:#FF928E"/>
			</linearGradient>
			<path style="fill:url(#SVGID_00000046306419504444606900000010163532787007209636_);" d="M1147.437,1942.527
				c0,0-80.988,186.896-130.827,161.977c-49.838-24.92-87.218-230.505-87.218-230.505S1085.138,1836.619,1147.437,1942.527z"/>
			
				<linearGradient id="SVGID_00000036937042354372542240000006912635196643480241_" gradientUnits="userSpaceOnUse" x1="5951.4463" y1="2768.9668" x2="5956.1084" y2="3281.7642" gradientTransform="matrix(1 0 0 1 -4984.7295 0)">
				<stop  offset="0" style="stop-color:#09005D"/>
				<stop  offset="1" style="stop-color:#1A0F91"/>
			</linearGradient>
			<path style="fill:url(#SVGID_00000036937042354372542240000006912635196643480241_);" d="M865.456,3102.317
				c0,0-6.77,38.329-10.089,76.271c-1.298,14.828,10.135,27.704,25.006,28.323c50.527,2.104,158.606,6.196,197.389,4.466
				c5.83-0.261,9.642-6.23,7.485-11.652c-1.808-4.543-5.297-8.218-9.739-10.26l-178.528-82.05L865.456,3102.317z"/>
			
				<linearGradient id="SVGID_00000165915491580209291860000006808593397269116550_" gradientUnits="userSpaceOnUse" x1="5844.6401" y1="3102.1594" x2="5902.71" y2="3102.1594" gradientTransform="matrix(1 0 0 1 -4984.7295 0)">
				<stop  offset="0" style="stop-color:#FEBBBA"/>
				<stop  offset="1" style="stop-color:#FF928E"/>
			</linearGradient>
			<path style="fill:url(#SVGID_00000165915491580209291860000006808593397269116550_);" d="M859.91,3079.797l5.439,45.847
				c0,0,31.273,14.558,52.631-1.835l-12.951-51.092L859.91,3079.797z"/>
			
				<linearGradient id="SVGID_00000054263813273820862910000011692844644041484454_" gradientUnits="userSpaceOnUse" x1="5779.0264" y1="3323.1155" x2="5818.6602" y2="2259.6367" gradientTransform="matrix(1 0 0 1 -4984.7295 0)">
				<stop  offset="0" style="stop-color:#09005D"/>
				<stop  offset="1" style="stop-color:#1A0F91"/>
			</linearGradient>
			<path style="fill:url(#SVGID_00000054263813273820862910000011692844644041484454_);" d="M863.998,2217.869
				c-2.349,11.972-12.612,597.457,49.973,859.833c1.02,4.28-1.149,8.693-5.224,10.359c-9.598,3.921-28.416,9.601-50.969,10.358
				c-6.984,0.234-13.246-4.304-15.216-11.009c-17.89-60.875-103.612-365.877-114.795-657.236c-12.496-325.566,0-11.085,0-11.085
				l7.328-201.245L863.998,2217.869z"/>
			
				<linearGradient id="SVGID_00000142152895487836763730000011507483148739587213_" gradientUnits="userSpaceOnUse" x1="5665.9863" y1="2771.5637" x2="5670.6484" y2="3284.3596" gradientTransform="matrix(1 0 0 1 -4984.7295 0)">
				<stop  offset="0" style="stop-color:#09005D"/>
				<stop  offset="1" style="stop-color:#1A0F91"/>
			</linearGradient>
			<path style="fill:url(#SVGID_00000142152895487836763730000011507483148739587213_);" d="M660.091,3122.313
				c0,0-10.778,19.35-21.211,70.767c-1.883,9.286,4.604,18.173,14.034,19.1c16.684,1.641,42.368,3.75,62.943,3.609
				c9.484-0.065,16.885-8.324,15.743-17.739c-2.279-18.767-9.379-49.559-31.311-73.559L660.091,3122.313z"/>
			
				<linearGradient id="SVGID_00000183950251270855910480000000560383332274627216_" gradientUnits="userSpaceOnUse" x1="5635.3555" y1="3099.1816" x2="5685.4932" y2="3099.1816" gradientTransform="matrix(1 0 0 1 -4984.7295 0)">
				<stop  offset="0" style="stop-color:#FEBBBA"/>
				<stop  offset="1" style="stop-color:#FF928E"/>
			</linearGradient>
			<path style="fill:url(#SVGID_00000183950251270855910480000000560383332274627216_);" d="M650.626,3063.345l12.71,69.332
				c0,0,12.568,9.348,37.428,2.571l-6.066-74.597L650.626,3063.345z"/>
			
				<linearGradient id="SVGID_00000131353935220951988180000008221676015531872162_" gradientUnits="userSpaceOnUse" x1="5681.0068" y1="3319.4629" x2="5720.6401" y2="2255.9863" gradientTransform="matrix(1 0 0 1 -4984.7295 0)">
				<stop  offset="0" style="stop-color:#09005D"/>
				<stop  offset="1" style="stop-color:#1A0F91"/>
			</linearGradient>
			<path style="fill:url(#SVGID_00000131353935220951988180000008221676015531872162_);" d="M616.289,2235.836
				c-51.186,308.906,11.103,763.489,32.111,852.461c1.285,5.447,5.682,9.62,11.203,10.536c9.376,1.554,24.814,2.823,40.034-1.598
				c5.244-1.523,8.928-6.252,9.142-11.71c2.818-71.932-2.254-513.523,45.438-688.042c2.418-8.844,7.819-16.557,15.291-21.87
				l92.57-65.809l7.096-106.374L616.289,2235.836z"/>
			<g>
				
					<linearGradient id="SVGID_00000017508344486819045230000002866871718952710292_" gradientUnits="userSpaceOnUse" x1="-3431.772" y1="1749.6993" x2="-3130.0923" y2="2543.3508" gradientTransform="matrix(-1 0 0 1 -2606.4314 0)">
					<stop  offset="0" style="stop-color:#4F52FF"/>
					<stop  offset="1" style="stop-color:#4042E2"/>
				</linearGradient>
				<path style="fill:url(#SVGID_00000017508344486819045230000002866871718952710292_);" d="M948.082,1662.183
					c-186.895-18.69-328.282,28.609-328.282,28.609c-45.724,266.793-7.996,574.52-7.996,574.52
					c118.753,31.143,252.713-19.041,252.713-19.041c19.737-111.512,111.827-425.347,111.827-425.347
					C1051.291,1811.623,995.165,1666.892,948.082,1662.183z"/>
			</g>
			
				<linearGradient id="SVGID_00000035504092395767298430000010846935393785890994_" gradientUnits="userSpaceOnUse" x1="5440.7402" y1="2002.4417" x2="5822.3208" y2="2002.4417" gradientTransform="matrix(1 0 0 1 -4984.7295 0)">
				<stop  offset="0" style="stop-color:#FEBBBA"/>
				<stop  offset="1" style="stop-color:#FF928E"/>
			</linearGradient>
			<path style="fill:url(#SVGID_00000035504092395767298430000010846935393785890994_);" d="M816.303,1979.083
				c0,0-170.038,92.103-224.316,14.474c-11.269-16.119-16.245-37.762-13.469-53.034c-48.22-24.347-93.307-28.312-120.38-30.305
				c-7.104,37.21,4.109,78.046,25.798,118.14c83.638,154.608,353.655-9.612,353.655-9.612L816.303,1979.083z"/>
			<g>
				
					<linearGradient id="SVGID_00000023253913760365993760000006931712440074501512_" gradientUnits="userSpaceOnUse" x1="990.5606" y1="1929.5557" x2="1428.3055" y2="1448.0363">
					<stop  offset="0" style="stop-color:#09005D"/>
					<stop  offset="1" style="stop-color:#1A0F91"/>
				</linearGradient>
				<path style="fill:url(#SVGID_00000023253913760365993760000006931712440074501512_);" d="M908.802,2006.446l57.479-200.727
					c0.653-2.278,2.596-3.941,4.951-4.215c10.414-1.215,40.59-4.626,75.431-7.573c41.968-3.55,90.704-6.426,119.828-3.979
					c4.14,0.348,6.642,4.727,4.801,8.452c-16.561,33.506-84.684,169.798-118.798,214.446c-1.13,1.479-2.878,2.344-4.739,2.327
					l-133.359-1.241C910.514,2013.9,907.735,2010.177,908.802,2006.446z"/>
				
					<linearGradient id="SVGID_00000093899746840660800560000007579475314496853405_" gradientUnits="userSpaceOnUse" x1="5794.4458" y1="1967.7953" x2="5911.4106" y2="1967.7953" gradientTransform="matrix(1 0 0 1 -4984.7295 0)">
					<stop  offset="0" style="stop-color:#FEBBBA"/>
					<stop  offset="1" style="stop-color:#FF928E"/>
				</linearGradient>
				<path style="fill:url(#SVGID_00000093899746840660800560000007579475314496853405_);" d="M834.56,2019.819
					c-8.939,1.682-17.519-4.338-19.315-13.254c-3.263-16.201-7.662-42.717-4.357-54.67c4.933-17.841,14.492-40.78,46.352-35.683
					c31.859,5.098,69.441,18.519,69.441,18.519s-1.898,23.239-26.112,15.741l15.016,11.619c0,0-2.147,18.607-22.6,8.666
					l13.966,15.408c0,0-8.783,15.283-23.831,5.48C870.242,1983.255,863.101,2014.447,834.56,2019.819z"/>
				
					<linearGradient id="SVGID_00000108990886665213748300000009291601334728426129_" gradientUnits="userSpaceOnUse" x1="-3208.8582" y1="-763.6788" x2="-3091.8879" y2="-763.6788" gradientTransform="matrix(-0.8472 -0.5312 -0.5312 0.8472 -1944.8094 848.1048)">
					<stop  offset="0" style="stop-color:#FEBBBA"/>
					<stop  offset="1" style="stop-color:#FF928E"/>
				</linearGradient>
				<path style="fill:url(#SVGID_00000108990886665213748300000009291601334728426129_);" d="M1144.613,1945.203
					c0,0,37.074-36.11,42.374-53.845c5.298-17.737,9.385-42.249-20.316-54.855c-29.699-12.604-68.671-21.198-68.671-21.198
					s-10.736,20.698,13.762,27.207l-18.894,1.867c0,0-8.065,16.906,14.544,19.348l-20.017,5.635c0,0-0.678,17.615,17.278,17.303
					S1105.241,1927.665,1144.613,1945.203z"/>
			</g>
			
				<linearGradient id="SVGID_00000147910167985928345630000004337630084533780611_" gradientUnits="userSpaceOnUse" x1="5741.397" y1="1617.641" x2="5889.833" y2="1617.641" gradientTransform="matrix(1 0 0 1 -4984.7295 0)">
				<stop  offset="0" style="stop-color:#FEBBBA"/>
				<stop  offset="1" style="stop-color:#FF928E"/>
			</linearGradient>
			<path style="fill:url(#SVGID_00000147910167985928345630000004337630084533780611_);" d="M805.759,1537.586l-48.808,141.148
				c-0.809,2.338,0.153,4.927,2.318,6.124c13.305,7.356,61.238,28.618,119-8.005c6.018-3.814,10.114-10.037,11.029-17.103
				l15.806-122.163H805.759z"/>
			<g>
				
					<linearGradient id="SVGID_00000075852828011299112750000017729112925106509957_" gradientUnits="userSpaceOnUse" x1="-953.2896" y1="2267.5408" x2="-1008.7582" y2="2084.592" gradientTransform="matrix(0.746 -0.6659 0.6659 0.746 141.6057 -803.1727)">
					<stop  offset="0" style="stop-color:#FEBBBA"/>
					<stop  offset="1" style="stop-color:#FF928E"/>
				</linearGradient>
				<path style="fill:url(#SVGID_00000075852828011299112750000017729112925106509957_);" d="M911.957,1406.88
					c0,0,53.594,100.888,46.724,141.641c-6.869,40.753-73.294,37.828-131.296,4.729l-40.531-108.936L911.957,1406.88z"/>
				
					<linearGradient id="SVGID_00000183214954816323547530000012916665018888109204_" gradientUnits="userSpaceOnUse" x1="-1003.3339" y1="1948.7787" x2="-956.9346" y2="2213.427" gradientTransform="matrix(0.746 -0.6659 0.6659 0.746 141.6057 -803.1727)">
					<stop  offset="0" style="stop-color:#09005D"/>
					<stop  offset="1" style="stop-color:#1A0F91"/>
				</linearGradient>
				<path style="fill:url(#SVGID_00000183214954816323547530000012916665018888109204_);" d="M829.95,1499.752
					c2.357-1.044,3.227-3.929,1.815-6.086c-4.294-6.56-12.343-19.942-14.911-31.658c0,0-9.635-6.171,24.523-14.346
					c34.157-8.176,85.095-20.866,95.801-49.94c10.439-28.347-16.988-99.635-60.746-42.834c-1.664,2.161-4.926,2.209-6.588,0.046
					c-7.174-9.336-26.033-28.715-52.215-16.966c-24.503,10.994-27.262,28.949-26.925,37.999c0.098,2.662-2.281,4.731-4.899,4.233
					c-12.388-2.363-42.116-4.392-55.991,26.104c-11.43,25.119-4.002,39.339,2.764,46.293c2.192,2.253,1.232,5.964-1.774,6.884
					c-8.141,2.492-18.655,9.396-17.602,28.47c1.454,26.37,30.938,24.047,39.332,22.844c1.376-0.196,2.761,0.276,3.693,1.306
					c7.197,7.965,39.626,41.785,74.724,45.862c3.039,0.353,5.393-2.649,4.399-5.54l-15.19-44.154c-0.705-2.05,0.276-4.3,2.26-5.179
					L829.95,1499.752z"/>
				
					<linearGradient id="SVGID_00000101805108886521053230000005355438987573161624_" gradientUnits="userSpaceOnUse" x1="-1009.993" y1="2266.688" x2="-1059.8986" y2="2102.0876" gradientTransform="matrix(0.746 -0.6659 0.6659 0.746 141.6057 -803.1727)">
					<stop  offset="0" style="stop-color:#FEBBBA"/>
					<stop  offset="1" style="stop-color:#FF928E"/>
				</linearGradient>
				<path style="fill:url(#SVGID_00000101805108886521053230000005355438987573161624_);" d="M836.055,1506.019
					c0,0-38.16-26.182-40.947-4.134c-2.789,22.049,34.362,31.936,52.764,23.717L836.055,1506.019z"/>
			</g>
			
				<linearGradient id="SVGID_00000016782774347913037500000009402196755040973978_" gradientUnits="userSpaceOnUse" x1="-3245.2327" y1="1678.9791" x2="-2946.49" y2="2464.9038" gradientTransform="matrix(-1 0 0 1 -2606.4314 0)">
				<stop  offset="0" style="stop-color:#4F52FF"/>
				<stop  offset="1" style="stop-color:#4042E2"/>
			</linearGradient>
			<path style="fill:url(#SVGID_00000016782774347913037500000009402196755040973978_);" d="M678.635,1839.321L619.8,1690.793
				c0,0-134.976,91.71-164.458,209.963c-1.404,5.632,2.567,11.171,8.339,11.781c28.217,2.981,71.427,11.008,113.832,32.42
				C588.109,1886.674,678.635,1839.321,678.635,1839.321z"/>
			<path style="fill:#FFFFFF;" d="M829.95,1499.752c46.186-12.061,90.471-24.529,104.209-43.553
				c43.88,84.221,36.34,128.716-37.04,122.344c-33.772-7.901-53.706-28.384-71.835-50.509
				C839.831,1518.057,839.581,1508.706,829.95,1499.752z"/>
		</g>
	</g>
</g>
</svg>
