<svg width="1606" height="1606" viewBox="0 0 1606 1606" fill="none" xmlns="http://www.w3.org/2000/svg">
<path d="M1606 803C1606 1018.52 1521.09 1214.21 1382.9 1358.44C1236.74 1511.01 1030.96 1606 803 1606C575.04 1606 369.26 1511.01 223.1 1358.44C84.91 1214.21 0 1018.52 0 803C0 359.52 359.52 0 803 0C1246.48 0 1606 359.52 1606 803Z" fill="url(#paint0_radial_133_366)"/>
<path d="M803 846.093C984.175 846.093 1131.05 699.222 1131.05 518.047C1131.05 336.872 984.175 190.001 803 190.001C621.825 190.001 474.954 336.872 474.954 518.047C474.954 699.222 621.825 846.093 803 846.093Z" fill="url(#paint1_radial_133_366)"/>
<path d="M1382.9 1358.44C1236.74 1511.01 1030.96 1606 803 1606C575.04 1606 369.26 1511.01 223.1 1358.44C305.64 1117.51 534.1 944.32 803 944.32C1071.9 944.32 1300.36 1117.51 1382.9 1358.44Z" fill="url(#paint2_radial_133_366)"/>
<defs>
<radialGradient id="paint0_radial_133_366" cx="0" cy="0" r="1" gradientUnits="userSpaceOnUse" gradientTransform="translate(-424.5 1448) rotate(-25.3418) scale(2353.75)">
<stop offset="0.21" stop-color="#FF4081"/>
<stop offset="0.4425" stop-color="#FBFBFB"/>
<stop offset="0.665" stop-color="#3F51B5"/>
</radialGradient>
<radialGradient id="paint1_radial_133_366" cx="0" cy="0" r="1" gradientUnits="userSpaceOnUse" gradientTransform="translate(727.057 402.494) scale(480.558)">
<stop stop-color="white"/>
<stop offset="0.9989" stop-color="#D1D1D1"/>
</radialGradient>
<radialGradient id="paint2_radial_133_366" cx="0" cy="0" r="1" gradientUnits="userSpaceOnUse" gradientTransform="translate(668.753 1158.62) scale(674.959 674.959)">
<stop stop-color="white"/>
<stop offset="0.9989" stop-color="#D1D1D1"/>
</radialGradient>
</defs>
</svg>
